# xmcd CD database file
#
# Track frame offsets:
#	150
#	14071
#	28718
#	43960
#	60181
#	76591
#	98125
#	115416
#	133255
#	154288
#	172307
#	190603
#
# Disc length: 2820 seconds
#
# Revision: 0
# Processed by: cddbd v1.5.1PL0 Copyright (c) Steve Scherf et al.
# Submitted via: NeoAudio 9.9.9
#
DISCID=a00b020c
DTITLE=Claye Middleton - Your Way Home
DYEAR=2005
DGENRE=Country
TTITLE0=1933
TTITLE1=The Lake Knows
TTITLE2=I'll Take The Country
TTITLE3=Payford St
TTITLE4=Country Spirit
TTITLE5=The Walk
TTITLE6=The Rocking Chair
TTITLE7=Give A Little Back
TTITLE8=Free And Flying
TTITLE9=Your Way Home
TTITLE10=Southern Streamline
TTITLE11=Nan's Song
EXTD=YEAR: 2005
EXTT0=
EXTT1=
EXTT2=
EXTT3=
EXTT4=
EXTT5=
EXTT6=
EXTT7=
EXTT8=
EXTT9=
EXTT10=
EXTT11=
PLAYORDER=
